# xmcd
#
# Track frame offsets: 
#        150
#        24327
#        41803
#        68015
#        98541
#        120329
#        143542
#        161152
#        181516
#        204916
#        225804
#        241668
#        264806
#        285919
#        310435
#        335261
#
# Disc length: 4773 seconds
#
# Revision: 0
# Processed by: cddbd v1.4PL0 Copyright (c) Steve Scherf et al.
# Submitted via: ExactAudioCopy v0.90a11
#
DISCID=b712a310
DTITLE=Saffire: The Uppity Blues Women - Live at the Toronto Jazz Fest
DTITLE=ival June 6th 2000
DYEAR=1900
DGENRE=
TTITLE0='Taint Nobodys Business if I do
TTITLE1=Strutin' My Stuff
TTITLE2=Middle Aged Blues
TTITLE3=Silver Beaver
TTITLE4=Mr. Insurance Man
TTITLE5=Thunder Thighs
TTITLE6=Hold Me
TTITLE7=Music Makin' Mama
TTITLE8=Sugar In My Bowl
TTITLE9=Big Ovaries
TTITLE10=Bad Debt
TTITLE11=Crazy
TTITLE12=Don't Give It Away
TTITLE13=I've Been Here Once and Once Was Enough
TTITLE14=If You Dig It Don't Do It
TTITLE15=Going Home (encore)
EXTD=
EXTT0=
EXTT1=
EXTT2=
EXTT3=
EXTT4=
EXTT5=
EXTT6=
EXTT7=
EXTT8=
EXTT9=
EXTT10=
EXTT11=
EXTT12=
EXTT13=
EXTT14=
EXTT15=
PLAYORDER=
